<svg width="51" height="65" viewBox="0 0 51 65" fill="none" xmlns="http://www.w3.org/2000/svg">
<path d="M49.6539 32.5459L1.64076 63.4896C1.63112 63.4958 1.62502 63.4979 1.62238 63.4987C1.61953 63.4996 1.61709 63.5 1.61446 63.5C1.60855 63.5001 1.59773 63.4985 1.58508 63.4916C1.57244 63.4847 1.56524 63.4765 1.56213 63.4715C1.56074 63.4692 1.55972 63.467 1.5589 63.4641C1.55813 63.4615 1.55664 63.4552 1.55664 63.4437L1.55664 1.55629C1.55664 1.54482 1.55814 1.53853 1.5589 1.53587C1.55972 1.53301 1.56075 1.53077 1.56213 1.52853C1.56524 1.52351 1.57244 1.51528 1.58508 1.50839C1.59773 1.50149 1.60855 1.4999 1.61446 1.50001C1.61709 1.50005 1.61953 1.50041 1.62238 1.50127C1.62502 1.50206 1.63112 1.50422 1.64076 1.51043L49.6539 32.4541C49.6674 32.4628 49.6711 32.4692 49.6729 32.4727C49.6745 32.4756 49.676 32.4796 49.6772 32.4844C49.6782 32.4889 49.6789 32.4941 49.6789 32.5C49.6789 32.5123 49.6759 32.5217 49.6729 32.5273C49.6722 32.5287 49.6712 32.5305 49.6695 32.5327C49.6667 32.5361 49.6622 32.5406 49.6539 32.5459Z" fill="#E3CEB6" stroke="#492421" stroke-width="2"/>
</svg>
