<svg width="125" height="125" viewBox="0 0 125 125" fill="none" xmlns="http://www.w3.org/2000/svg">
<path d="M121.395 43.8786C125.593 57.1351 125.218 71.4173 120.33 84.4354C115.442 97.4534 106.325 108.453 94.4395 115.671C82.5543 122.889 68.5896 125.907 54.7843 124.242C40.9791 122.576 28.133 116.323 18.3055 106.486C8.47801 96.648 2.23845 83.7954 0.587166 69.9884C-1.06412 56.1814 1.96852 42.2199 9.19888 30.3421C16.4292 18.4643 27.4385 9.35841 40.4616 4.48419C53.4847 -0.39003 67.7673 -0.750188 81.0195 3.46146L79.4902 8.2734C67.316 4.40434 54.1952 4.7352 42.2314 9.21294C30.2677 13.6907 20.154 22.0559 13.5118 32.9675C6.86954 43.8791 4.08358 56.7049 5.60054 69.3888C7.1175 82.0727 12.8495 93.8798 21.8776 102.917C30.9057 111.955 42.7069 117.699 55.3891 119.229C68.0714 120.759 80.9002 117.987 91.8186 111.356C102.737 104.725 111.113 94.6197 115.603 82.6606C120.093 70.7015 120.438 57.5811 116.581 45.4028L121.395 43.8786Z" fill="#492421"/>
</svg>
